<svg xmlns="http://www.w3.org/2000/svg" xmlns:xlink="http://www.w3.org/1999/xlink" width="1383" zoomAndPan="magnify" viewBox="0 0 1037.25 1037.249948" height="1383" preserveAspectRatio="xMidYMid meet" version="1.0"><defs><clipPath id="964130d9ac"><path d="M 0 0 L 1035.75 0 L 1035.75 1035.75 L 0 1035.75 Z M 0 0 " clip-rule="nonzero"/></clipPath><clipPath id="59f32a4145"><path d="M 0 0 L 1035.75 0 L 1035.75 1035.75 L 0 1035.75 Z M 0 0 " clip-rule="nonzero"/></clipPath></defs><g clip-path="url(#964130d9ac)"><path fill="#e2bc2c" d="M 1035.75 517.875 C 1035.75 526.351562 1035.542969 534.820312 1035.128906 543.285156 C 1034.710938 551.75 1034.089844 560.203125 1033.257812 568.636719 C 1032.425781 577.070312 1031.390625 585.480469 1030.144531 593.863281 C 1028.902344 602.246094 1027.453125 610.59375 1025.800781 618.90625 C 1024.148438 627.21875 1022.289062 635.488281 1020.230469 643.707031 C 1018.171875 651.929688 1015.910156 660.097656 1013.453125 668.207031 C 1010.992188 676.316406 1008.332031 684.363281 1005.476562 692.34375 C 1002.621094 700.324219 999.574219 708.226562 996.328125 716.058594 C 993.085938 723.886719 989.652344 731.632812 986.027344 739.296875 C 982.40625 746.957031 978.597656 754.527344 974.601562 762 C 970.605469 769.476562 966.429688 776.847656 962.070312 784.117188 C 957.714844 791.386719 953.183594 798.542969 948.472656 805.589844 C 943.765625 812.640625 938.886719 819.566406 933.835938 826.375 C 928.789062 833.179688 923.574219 839.859375 918.199219 846.414062 C 912.820312 852.964844 907.289062 859.378906 901.597656 865.660156 C 895.902344 871.9375 890.0625 878.074219 884.070312 884.070312 C 878.074219 890.0625 871.9375 895.902344 865.660156 901.597656 C 859.378906 907.289062 852.964844 912.820312 846.414062 918.199219 C 839.859375 923.574219 833.179688 928.789062 826.375 933.835938 C 819.566406 938.886719 812.640625 943.765625 805.589844 948.472656 C 798.542969 953.183594 791.386719 957.714844 784.117188 962.070312 C 776.847656 966.429688 769.476562 970.605469 762 974.601562 C 754.527344 978.597656 746.957031 982.40625 739.296875 986.027344 C 731.632812 989.652344 723.886719 993.085938 716.058594 996.328125 C 708.226562 999.574219 700.324219 1002.621094 692.34375 1005.476562 C 684.363281 1008.332031 676.316406 1010.992188 668.207031 1013.453125 C 660.097656 1015.910156 651.929688 1018.171875 643.707031 1020.230469 C 635.488281 1022.289062 627.21875 1024.148438 618.90625 1025.800781 C 610.59375 1027.453125 602.246094 1028.902344 593.863281 1030.144531 C 585.480469 1031.390625 577.070312 1032.425781 568.636719 1033.257812 C 560.203125 1034.089844 551.75 1034.710938 543.285156 1035.128906 C 534.820312 1035.542969 526.351562 1035.75 517.875 1035.75 C 509.398438 1035.75 500.929688 1035.542969 492.464844 1035.128906 C 484 1034.710938 475.550781 1034.089844 467.113281 1033.257812 C 458.679688 1032.425781 450.269531 1031.390625 441.886719 1030.144531 C 433.503906 1028.902344 425.15625 1027.453125 416.84375 1025.800781 C 408.53125 1024.148438 400.261719 1022.289062 392.042969 1020.230469 C 383.820312 1018.171875 375.65625 1015.910156 367.542969 1013.453125 C 359.433594 1010.992188 351.386719 1008.332031 343.410156 1005.476562 C 335.429688 1002.621094 327.523438 999.574219 319.691406 996.328125 C 311.863281 993.085938 304.117188 989.652344 296.457031 986.027344 C 288.792969 982.40625 281.226562 978.597656 273.75 974.601562 C 266.277344 970.605469 258.902344 966.429688 251.632812 962.070312 C 244.363281 957.714844 237.207031 953.183594 230.160156 948.472656 C 223.113281 943.765625 216.183594 938.886719 209.378906 933.835938 C 202.570312 928.789062 195.890625 923.574219 189.339844 918.199219 C 182.789062 912.820312 176.371094 907.289062 170.089844 901.597656 C 163.8125 895.902344 157.675781 890.0625 151.683594 884.070312 C 145.6875 878.074219 139.847656 871.9375 134.15625 865.660156 C 128.464844 859.378906 122.929688 852.964844 117.550781 846.414062 C 112.175781 839.859375 106.960938 833.179688 101.914062 826.375 C 96.863281 819.566406 91.988281 812.636719 87.277344 805.589844 C 82.570312 798.542969 78.035156 791.386719 73.679688 784.117188 C 69.320312 776.847656 65.144531 769.476562 61.148438 762 C 57.15625 754.527344 53.34375 746.957031 49.722656 739.296875 C 46.097656 731.632812 42.664062 723.886719 39.421875 716.058594 C 36.175781 708.226562 33.128906 700.324219 30.273438 692.34375 C 27.417969 684.363281 24.761719 676.316406 22.300781 668.207031 C 19.839844 660.097656 17.578125 651.929688 15.519531 643.707031 C 13.460938 635.488281 11.605469 627.21875 9.949219 618.90625 C 8.296875 610.59375 6.847656 602.246094 5.605469 593.863281 C 4.363281 585.480469 3.324219 577.070312 2.492188 568.636719 C 1.664062 560.203125 1.039062 551.75 0.625 543.285156 C 0.207031 534.820312 0 526.351562 0 517.875 C 0 509.398438 0.207031 500.929688 0.625 492.464844 C 1.039062 484 1.664062 475.550781 2.492188 467.113281 C 3.324219 458.679688 4.363281 450.269531 5.605469 441.886719 C 6.847656 433.503906 8.296875 425.15625 9.949219 416.84375 C 11.605469 408.53125 13.460938 400.261719 15.519531 392.042969 C 17.578125 383.820312 19.839844 375.65625 22.300781 367.542969 C 24.761719 359.433594 27.417969 351.386719 30.273438 343.410156 C 33.128906 335.429688 36.175781 327.523438 39.421875 319.691406 C 42.664062 311.863281 46.097656 304.117188 49.722656 296.457031 C 53.34375 288.792969 57.15625 281.226562 61.148438 273.75 C 65.144531 266.277344 69.320312 258.902344 73.679688 251.632812 C 78.035156 244.363281 82.570312 237.207031 87.277344 230.160156 C 91.988281 223.113281 96.863281 216.183594 101.914062 209.378906 C 106.960938 202.570312 112.175781 195.890625 117.550781 189.339844 C 122.929688 182.789062 128.464844 176.371094 134.15625 170.089844 C 139.847656 163.8125 145.6875 157.675781 151.683594 151.683594 C 157.675781 145.6875 163.8125 139.847656 170.089844 134.15625 C 176.371094 128.464844 182.789062 122.929688 189.339844 117.550781 C 195.890625 112.175781 202.570312 106.960938 209.378906 101.914062 C 216.183594 96.863281 223.113281 91.988281 230.160156 87.277344 C 237.207031 82.570312 244.363281 78.035156 251.632812 73.679688 C 258.902344 69.320312 266.277344 65.144531 273.75 61.148438 C 281.226562 57.15625 288.792969 53.34375 296.457031 49.722656 C 304.117188 46.097656 311.863281 42.664062 319.691406 39.421875 C 327.523438 36.175781 335.429688 33.128906 343.410156 30.273438 C 351.386719 27.417969 359.433594 24.761719 367.542969 22.300781 C 375.65625 19.839844 383.820312 17.578125 392.042969 15.519531 C 400.261719 13.460938 408.53125 11.605469 416.84375 9.949219 C 425.15625 8.296875 433.503906 6.847656 441.886719 5.605469 C 450.269531 4.363281 458.679688 3.324219 467.113281 2.492188 C 475.550781 1.664062 484 1.039062 492.464844 0.625 C 500.929688 0.207031 509.398438 0 517.875 0 C 526.351562 0 534.820312 0.207031 543.285156 0.625 C 551.75 1.039062 560.203125 1.664062 568.636719 2.492188 C 577.070312 3.324219 585.480469 4.363281 593.863281 5.605469 C 602.246094 6.847656 610.59375 8.296875 618.90625 9.949219 C 627.21875 11.605469 635.488281 13.460938 643.707031 15.519531 C 651.929688 17.578125 660.097656 19.839844 668.207031 22.300781 C 676.316406 24.761719 684.363281 27.417969 692.34375 30.273438 C 700.324219 33.128906 708.226562 36.175781 716.058594 39.421875 C 723.886719 42.664062 731.632812 46.097656 739.296875 49.722656 C 746.957031 53.34375 754.527344 57.15625 762 61.148438 C 769.476562 65.144531 776.847656 69.320312 784.117188 73.679688 C 791.386719 78.035156 798.542969 82.570312 805.589844 87.277344 C 812.636719 91.988281 819.566406 96.863281 826.375 101.914062 C 833.179688 106.960938 839.859375 112.175781 846.414062 117.550781 C 852.964844 122.929688 859.378906 128.464844 865.660156 134.15625 C 871.9375 139.847656 878.074219 145.6875 884.070312 151.683594 C 890.0625 157.675781 895.902344 163.8125 901.597656 170.089844 C 907.289062 176.371094 912.820312 182.789062 918.199219 189.339844 C 923.574219 195.890625 928.789062 202.570312 933.835938 209.378906 C 938.886719 216.183594 943.765625 223.113281 948.472656 230.160156 C 953.183594 237.207031 957.714844 244.363281 962.070312 251.632812 C 966.429688 258.902344 970.605469 266.277344 974.601562 273.75 C 978.597656 281.226562 982.40625 288.792969 986.027344 296.457031 C 989.652344 304.117188 993.085938 311.863281 996.328125 319.691406 C 999.574219 327.523438 1002.621094 335.429688 1005.476562 343.410156 C 1008.332031 351.386719 1010.992188 359.433594 1013.453125 367.542969 C 1015.910156 375.65625 1018.171875 383.820312 1020.230469 392.042969 C 1022.289062 400.261719 1024.148438 408.53125 1025.800781 416.84375 C 1027.453125 425.15625 1028.902344 433.503906 1030.144531 441.886719 C 1031.390625 450.269531 1032.425781 458.679688 1033.257812 467.113281 C 1034.089844 475.550781 1034.710938 484 1035.128906 492.464844 C 1035.542969 500.929688 1035.75 509.398438 1035.75 517.875 Z M 1035.75 517.875 " fill-opacity="1" fill-rule="nonzero"/></g><path fill="#332e33" d="M 533.824219 259.765625 C 524.917969 253.136719 512.902344 253.136719 503.996094 259.765625 L 210.050781 493.222656 L 210.050781 517.875 L 289.390625 517.875 C 294.980469 517.875 299.746094 522.433594 299.746094 528.234375 L 299.746094 752.371094 C 299.746094 761.484375 307.203125 768.941406 316.320312 768.941406 L 459.460938 768.941406 L 459.460938 625.59375 C 459.460938 592.863281 485.972656 566.347656 518.703125 566.347656 C 551.433594 566.347656 577.949219 592.863281 577.949219 625.59375 L 577.949219 768.941406 L 721.089844 768.941406 C 730.203125 768.941406 737.660156 761.484375 737.660156 752.371094 L 737.660156 528.027344 C 737.660156 522.433594 742.21875 517.667969 748.019531 517.667969 L 827.359375 517.667969 L 827.359375 491.152344 Z M 533.824219 259.765625 " fill-opacity="1" fill-rule="nonzero"/><g clip-path="url(#59f32a4145)"><path fill="#f7c841" d="M 1035.75 517.875 C 1035.75 526.351562 1035.542969 534.820312 1035.128906 543.285156 C 1034.710938 551.75 1034.089844 560.203125 1033.257812 568.636719 C 1032.425781 577.070312 1031.390625 585.480469 1030.144531 593.863281 C 1028.902344 602.246094 1027.453125 610.59375 1025.800781 618.90625 C 1024.148438 627.21875 1022.289062 635.488281 1020.230469 643.707031 C 1018.171875 651.929688 1015.910156 660.097656 1013.453125 668.207031 C 1010.992188 676.316406 1008.332031 684.363281 1005.476562 692.34375 C 1002.621094 700.324219 999.574219 708.226562 996.328125 716.058594 C 993.085938 723.886719 989.652344 731.632812 986.027344 739.296875 C 982.40625 746.957031 978.597656 754.527344 974.601562 762 C 970.605469 769.476562 966.429688 776.847656 962.070312 784.117188 C 957.714844 791.386719 953.183594 798.542969 948.472656 805.589844 C 943.765625 812.636719 938.886719 819.566406 933.835938 826.375 C 928.789062 833.179688 923.574219 839.859375 918.199219 846.414062 C 912.820312 852.964844 907.289062 859.378906 901.597656 865.660156 C 895.902344 871.9375 890.0625 878.074219 884.070312 884.070312 C 878.074219 890.0625 871.9375 895.902344 865.660156 901.597656 C 859.378906 907.289062 852.964844 912.820312 846.414062 918.199219 C 839.859375 923.574219 833.179688 928.789062 826.375 933.835938 C 819.566406 938.886719 812.640625 943.765625 805.589844 948.472656 C 798.542969 953.183594 791.386719 957.714844 784.117188 962.070312 C 776.847656 966.429688 769.476562 970.605469 762 974.601562 C 754.527344 978.597656 746.957031 982.40625 739.296875 986.027344 C 731.632812 989.652344 723.886719 993.085938 716.058594 996.328125 C 708.226562 999.574219 700.324219 1002.621094 692.34375 1005.476562 C 684.363281 1008.332031 676.316406 1010.992188 668.207031 1013.453125 C 660.097656 1015.910156 651.929688 1018.171875 643.707031 1020.230469 C 635.488281 1022.289062 627.21875 1024.148438 618.90625 1025.800781 C 610.59375 1027.453125 602.246094 1028.902344 593.863281 1030.144531 C 585.480469 1031.390625 577.070312 1032.425781 568.636719 1033.257812 C 560.203125 1034.089844 551.75 1034.710938 543.285156 1035.128906 C 534.820312 1035.542969 526.351562 1035.75 517.875 1035.75 C 509.398438 1035.75 500.929688 1035.542969 492.464844 1035.128906 C 484 1034.710938 475.550781 1034.089844 467.113281 1033.257812 C 458.679688 1032.425781 450.269531 1031.390625 441.886719 1030.144531 C 433.503906 1028.902344 425.15625 1027.453125 416.84375 1025.800781 C 408.53125 1024.144531 400.261719 1022.289062 392.042969 1020.230469 C 383.820312 1018.171875 375.65625 1015.910156 367.542969 1013.453125 C 359.433594 1010.992188 351.386719 1008.332031 343.410156 1005.476562 C 335.429688 1002.621094 327.523438 999.574219 319.691406 996.328125 C 311.863281 993.085938 304.117188 989.652344 296.457031 986.027344 C 288.792969 982.40625 281.226562 978.597656 273.75 974.601562 C 266.277344 970.605469 258.902344 966.429688 251.632812 962.070312 C 244.363281 957.714844 237.207031 953.183594 230.160156 948.472656 C 223.113281 943.765625 216.183594 938.886719 209.378906 933.835938 C 202.570312 928.789062 195.890625 923.574219 189.339844 918.199219 C 182.789062 912.820312 176.371094 907.289062 170.089844 901.597656 C 163.8125 895.902344 157.675781 890.0625 151.683594 884.070312 C 145.6875 878.074219 139.847656 871.9375 134.15625 865.660156 C 128.464844 859.378906 122.929688 852.964844 117.550781 846.414062 C 112.175781 839.859375 106.960938 833.179688 101.914062 826.375 C 96.863281 819.566406 91.988281 812.636719 87.277344 805.589844 C 82.570312 798.542969 78.035156 791.386719 73.679688 784.117188 C 69.320312 776.847656 65.144531 769.476562 61.148438 762 C 57.15625 754.527344 53.34375 746.957031 49.722656 739.296875 C 46.097656 731.632812 42.664062 723.886719 39.421875 716.058594 C 36.175781 708.226562 33.128906 700.324219 30.273438 692.34375 C 27.417969 684.363281 24.761719 676.316406 22.300781 668.207031 C 19.839844 660.097656 17.578125 651.929688 15.519531 643.707031 C 13.460938 635.488281 11.605469 627.21875 9.949219 618.90625 C 8.296875 610.59375 6.847656 602.246094 5.605469 593.863281 C 4.363281 585.480469 3.324219 577.070312 2.492188 568.636719 C 1.664062 560.203125 1.039062 551.75 0.625 543.285156 C 0.207031 534.820312 0 526.351562 0 517.875 C 0 509.398438 0.207031 500.929688 0.625 492.464844 C 1.039062 484 1.664062 475.550781 2.492188 467.113281 C 3.324219 458.679688 4.363281 450.269531 5.605469 441.886719 C 6.847656 433.503906 8.296875 425.15625 9.949219 416.84375 C 11.605469 408.53125 13.460938 400.261719 15.519531 392.042969 C 17.578125 383.820312 19.839844 375.65625 22.300781 367.542969 C 24.761719 359.433594 27.417969 351.386719 30.273438 343.410156 C 33.128906 335.429688 36.175781 327.523438 39.421875 319.691406 C 42.664062 311.863281 46.097656 304.117188 49.722656 296.457031 C 53.34375 288.792969 57.15625 281.226562 61.148438 273.75 C 65.144531 266.277344 69.320312 258.902344 73.679688 251.632812 C 78.035156 244.363281 82.570312 237.207031 87.277344 230.160156 C 91.988281 223.113281 96.863281 216.183594 101.914062 209.378906 C 106.960938 202.570312 112.175781 195.890625 117.550781 189.339844 C 122.929688 182.789062 128.464844 176.371094 134.15625 170.089844 C 139.847656 163.8125 145.6875 157.675781 151.683594 151.683594 C 157.675781 145.6875 163.8125 139.847656 170.089844 134.15625 C 176.371094 128.464844 182.789062 122.929688 189.339844 117.550781 C 195.890625 112.175781 202.570312 106.960938 209.378906 101.914062 C 216.183594 96.863281 223.113281 91.988281 230.160156 87.277344 C 237.207031 82.570312 244.363281 78.035156 251.632812 73.679688 C 258.902344 69.320312 266.277344 65.144531 273.75 61.148438 C 281.226562 57.15625 288.792969 53.34375 296.457031 49.722656 C 304.117188 46.097656 311.863281 42.664062 319.691406 39.421875 C 327.523438 36.175781 335.429688 33.128906 343.410156 30.273438 C 351.386719 27.417969 359.433594 24.761719 367.542969 22.300781 C 375.65625 19.839844 383.820312 17.578125 392.042969 15.519531 C 400.261719 13.460938 408.53125 11.605469 416.84375 9.949219 C 425.15625 8.296875 433.503906 6.847656 441.886719 5.605469 C 450.269531 4.363281 458.679688 3.324219 467.113281 2.492188 C 475.550781 1.664062 484 1.039062 492.464844 0.625 C 500.929688 0.207031 509.398438 0 517.875 0 C 526.351562 0 534.820312 0.207031 543.285156 0.625 C 551.75 1.039062 560.203125 1.664062 568.636719 2.492188 C 577.070312 3.324219 585.480469 4.363281 593.863281 5.605469 C 602.246094 6.847656 610.59375 8.296875 618.90625 9.949219 C 627.21875 11.605469 635.488281 13.460938 643.707031 15.519531 C 651.929688 17.578125 660.097656 19.839844 668.207031 22.300781 C 676.316406 24.761719 684.363281 27.417969 692.34375 30.273438 C 700.324219 33.128906 708.226562 36.175781 716.058594 39.421875 C 723.886719 42.664062 731.632812 46.097656 739.296875 49.722656 C 746.957031 53.34375 754.527344 57.15625 762 61.148438 C 769.476562 65.144531 776.847656 69.320312 784.117188 73.679688 C 791.386719 78.035156 798.542969 82.570312 805.589844 87.277344 C 812.640625 91.988281 819.566406 96.863281 826.375 101.914062 C 833.179688 106.960938 839.859375 112.175781 846.414062 117.550781 C 852.964844 122.929688 859.378906 128.464844 865.660156 134.15625 C 871.9375 139.847656 878.074219 145.6875 884.070312 151.683594 C 890.0625 157.675781 895.902344 163.8125 901.597656 170.089844 C 907.289062 176.371094 912.820312 182.789062 918.199219 189.339844 C 923.574219 195.890625 928.789062 202.570312 933.835938 209.378906 C 938.886719 216.183594 943.765625 223.113281 948.472656 230.160156 C 953.183594 237.207031 957.714844 244.363281 962.070312 251.632812 C 966.429688 258.902344 970.605469 266.277344 974.601562 273.75 C 978.597656 281.226562 982.40625 288.792969 986.027344 296.457031 C 989.652344 304.117188 993.085938 311.863281 996.328125 319.691406 C 999.574219 327.523438 1002.621094 335.429688 1005.476562 343.410156 C 1008.332031 351.386719 1010.992188 359.433594 1013.453125 367.542969 C 1015.910156 375.65625 1018.171875 383.820312 1020.230469 392.042969 C 1022.289062 400.261719 1024.148438 408.53125 1025.800781 416.84375 C 1027.453125 425.15625 1028.902344 433.503906 1030.144531 441.886719 C 1031.390625 450.269531 1032.425781 458.679688 1033.257812 467.113281 C 1034.089844 475.550781 1034.710938 484 1035.128906 492.464844 C 1035.542969 500.929688 1035.75 509.398438 1035.75 517.875 Z M 1035.75 517.875 " fill-opacity="1" fill-rule="nonzero"/></g><path fill="#ff1f1f" d="M 808.507812 554.125 L 750.503906 554.125 L 750.503906 760.035156 C 750.503906 774.742188 750.503906 786.757812 729.789062 786.757812 L 587.683594 786.757812 L 587.683594 577.535156 L 448.066406 577.535156 L 448.066406 786.964844 L 312.796875 786.964844 C 285.039062 786.964844 285.039062 774.949219 285.039062 760.242188 L 285.039062 554.332031 L 227.035156 554.332031 C 206.320312 554.332031 200.730469 542.320312 214.609375 529.0625 L 491.980469 260.179688 C 505.859375 245.472656 529.269531 245.472656 543.148438 260.179688 L 820.730469 529.0625 C 834.816406 542.113281 829.429688 554.125 808.507812 554.125 Z M 808.507812 554.125 " fill-opacity="1" fill-rule="nonzero"/></svg>